# xmcd
#
# Track frame offsets: 
#        150
#        12215
#        22648
#        33403
#        42481
#        54263
#        64086
#        76466
#        88646
#        99681
#        111629
#        125139
#        138207
#
# Disc length: 1986 seconds
#
# Revision: 3
# Processed by: cddbd v1.5.2PL0 Copyright (c) Steve Scherf et al.
# Submitted via: ExactAudioCopyFreeDBPlugin 1.0
#
DISCID=a807c00d
DTITLE=Tammy Wynette - 1968 - Stand By Your Man [LP]
DYEAR=1968
DGENRE=Country
TTITLE0=Stand By Your Man
TTITLE1=It's My Way
TTITLE2=Forever Yours
TTITLE3=I Stayed Long Enough
TTITLE4=It Keeps Slipping My Mind
TTITLE5=My Arms Stay Open Late
TTITLE6=I've Learned
TTITLE7=Cry, Cry Again
TTITLE8=Joey
TTITLE9=If I Were A Little Girl
TTITLE10=Don't Make Me Go To School
TTITLE11=I'm Only A Woman
TTITLE12=There's Quite a Difference
EXTD=
EXTT0=
EXTT1=
EXTT2=
EXTT3=
EXTT4=
EXTT5=
EXTT6=
EXTT7=
EXTT8=
EXTT9=
EXTT10=
EXTT11=
EXTT12=
PLAYORDER=
